<?xml version="1.0" standalone="no"?><!DOCTYPE svg PUBLIC "-//W3C//DTD SVG 1.1//EN" "http://www.w3.org/Graphics/SVG/1.1/DTD/svg11.dtd"><svg t="1513663045178" class="icon" style="" viewBox="0 0 1024 1024" version="1.1" xmlns="http://www.w3.org/2000/svg" p-id="3956" xmlns:xlink="http://www.w3.org/1999/xlink" width="48" height="48"><defs><style type="text/css"></style></defs><path d="M138.299 964.567c-9.786 0-18.339-7.188-19.772-17.158-3.089-21.493-4.527-39.56-4.527-56.846 0-53.735 10.525-105.868 31.283-154.951 20.045-47.397 48.739-89.959 85.285-126.501 36.543-36.54 79.105-65.229 126.503-85.271 49.078-20.754 101.204-31.275 154.929-31.275 11.046 0 20 8.952 20 20.001 0 11.046-8.954 20-20 20-197.402 0-358 160.598-358 358 0 15.338 1.31 31.592 4.121 51.152 1.571 10.936-6.018 21.069-16.951 22.645-0.965 0.137-1.924 0.204-2.871 0.204z" fill="#8a8a8a" p-id="3957"></path><path d="M512 532.564c-63.048 0-122.324-24.552-166.911-69.126-44.587-44.578-69.142-103.84-69.142-166.875 0-130.131 105.893-236 236.053-236 63.038 0 122.299 24.559 166.864 69.152 44.549 44.576 69.083 103.831 69.083 166.848 0 63.038-24.535 122.3-69.084 166.869-44.559 44.581-103.819 69.132-166.863 69.132z m0-432c-108.104 0-196.053 87.925-196.053 196s87.948 196 196.053 196c108.046 0 195.947-87.925 195.947-196s-87.901-196-195.947-196z" fill="#8a8a8a" p-id="3958"></path><path d="M666.877 523.84c-49.078-20.754-101.205-31.275-154.93-31.275-11.047 0-20 8.952-20 20.001 0 11.046 8.953 20 20 20 65.128 0 126.245 17.483 178.916 48.001l20.084-34.785a397.887 397.887 0 0 0-44.07-21.942z" fill="#8a8a8a" p-id="3959"></path><path d="M511.947 512.564m-20 0a20 20 0 1 0 40 0 20 20 0 1 0-40 0Z" fill="#8a8a8a" p-id="3960"></path><path d="M701.059 563.181m-20 0a20 20 0 1 0 40 0 20 20 0 1 0-40 0Z" fill="#8a8a8a" p-id="3961"></path><path d="M677.975 930.428L875.96 732.443l28.284 28.284L706.26 958.712z" fill="#8a8a8a" p-id="3962"></path><path d="M692.115 944.566m-20.001 0a20.001 20.001 0 1 0 40.002 0 20.001 20.001 0 1 0-40.002 0Z" fill="#8a8a8a" p-id="3963"></path><path d="M890.105 746.577m-20 0a20 20 0 1 0 40 0 20 20 0 1 0-40 0Z" fill="#8a8a8a" p-id="3964"></path><path d="M890.105 746.577m-20 0a20 20 0 1 0 40 0 20 20 0 1 0-40 0Z" fill="#8a8a8a" p-id="3965"></path><path d="M890.105 746.577m-20 0a20 20 0 1 0 40 0 20 20 0 1 0-40 0Z" fill="#8a8a8a" p-id="3966"></path><path d="M677.976 958.707L564.842 845.574l28.285-28.285L706.26 930.423z" fill="#8a8a8a" p-id="3967"></path><path d="M692.115 944.566m-20.001 0a20.001 20.001 0 1 0 40.002 0 20.001 20.001 0 1 0-40.002 0Z" fill="#8a8a8a" p-id="3968"></path><path d="M578.979 831.43m-20.001 0a20.001 20.001 0 1 0 40.002 0 20.001 20.001 0 1 0-40.002 0Z" fill="#8a8a8a" p-id="3969"></path><path d="M578.979 831.43m-20.001 0a20.001 20.001 0 1 0 40.002 0 20.001 20.001 0 1 0-40.002 0Z" fill="#8a8a8a" p-id="3970"></path><path d="M578.979 831.43m-20.001 0a20.001 20.001 0 1 0 40.002 0 20.001 20.001 0 1 0-40.002 0Z" fill="#8a8a8a" p-id="3971"></path></svg>