<?xml version="1.0" standalone="no"?><!DOCTYPE svg PUBLIC "-//W3C//DTD SVG 1.1//EN" "http://www.w3.org/Graphics/SVG/1.1/DTD/svg11.dtd"><svg class="icon" width="32px" height="32.00px" viewBox="0 0 1024 1024" version="1.1" xmlns="http://www.w3.org/2000/svg"><path fill="#8a8a8a" d="M983.87968 417.91488c-5.2224-27.56608-21.7088-45.24032-41.82016-44.78976l-4.1984 0c-69.09952 0-125.3376-56.2176-125.3376-125.3376 0-22.77376 10.83392-47.73888 10.89536-47.9232 10.67008-24.02304 2.4576-53.49376-19.10784-68.54656l-1.18784-0.83968-120.5248-66.94912L681.3696 62.976c-7.14752-3.11296-14.97088-4.66944-23.30624-4.66944-17.16224 0-33.9968 6.84032-45.01504 18.28864-14.72512 15.19616-61.11232 54.62016-98.54976 54.62016-37.7856 0-84.45952-40.22272-99.2256-55.68512-11.07968-11.6736-28.0576-18.65728-45.3632-18.65728-8.15104 0-15.85152 1.51552-22.87616 4.52608l-1.29024 0.55296-124.78464 68.54656-1.2288 0.86016C198.12352 146.35008 189.87008 175.8208 200.54016 199.80288c0.1024 0.24576 10.93632 25.21088 10.93632 47.98464 0 69.09952-56.2176 125.3376-125.3376 125.3376L81.94048 373.12512c-20.15232-0.47104-36.61824 17.22368-41.82016 44.78976-0.4096 2.17088-10.09664 53.80096-10.09664 94.47424s9.66656 92.30336 10.09664 94.47424c5.14048 27.21792 21.25824 44.78976 41.0624 44.78976 0.24576 0 0.512 0 0.75776 0l4.17792 0c69.09952 0 125.3376 56.2176 125.3376 125.3376 0 22.77376-10.83392 47.73888-10.89536 47.9232-10.67008 24.02304-2.47808 53.49376 19.0464 68.54656l1.16736 0.8192 118.23104 66.10944 1.24928 0.55296c7.12704 3.13344 14.92992 4.7104 23.20384 4.7104 17.36704 0 34.28352-7.12704 45.28128-19.06688 13.86496-15.07328 62.11584-58.08128 100.74112-58.08128 38.89152 0 86.4256 42.76224 101.41696 59.20768 11.01824 12.14464 28.0576 19.39456 45.58848 19.39456l0 0c8.11008 0 15.7696-1.536 22.77376-4.54656l1.26976-0.55296 122.55232-67.72736 1.20832-0.83968c21.58592-15.03232 29.7984-44.50304 19.16928-68.48512-0.1024-0.24576-10.93632-25.21088-10.93632-47.98464 0-69.12 56.2176-125.3376 125.3376-125.3376l4.1984 0c20.11136 0.4096 36.61824-17.22368 41.82016-44.78976 0.4096-2.17088 10.09664-53.80096 10.09664-94.47424C993.97632 471.71584 984.28928 420.08576 983.87968 417.91488zM945.99168 599.79776c-101.39648 5.26336-176.49664 89.41568-176.49664 192.08192 0 34.34496 12.0832 61.48096 14.99136 68.28032l-120.9344 66.84672c-0.06144 0-0.12288 0-0.2048 0-1.72032 0-3.35872-0.63488-3.93216-1.024-2.17088-2.37568-18.39104-15.40096-43.6224-34.14016-37.62176-27.93472-73.44128-42.10688-106.43456-42.10688-32.70656 0-68.23936 13.90592-105.65632 41.30816-25.088 18.39104-39.3216 28.50816-41.49248 30.84288-0.57344 0.36864-2.19136 1.00352-3.8912 1.00352-0.1024 0-0.18432 0-0.26624 0l-116.6336-65.2288c2.8672-6.63552 13.1072-31.3344 13.1072-65.78176 0-102.68672-76.3904-186.81856-177.78688-192.08192-1.45408-8.0896-9.37984-53.39136-9.37984-87.40864 0-34.01728 7.92576-79.33952 9.37984-87.38816 101.39648-5.26336 177.78688-89.41568 177.78688-192.08192 0-34.26304-13.312-62.64832-16.26112-69.50912l123.24864-67.6864c0.12288 0 0.26624-0.02048 0.43008-0.02048 2.048 0 3.95264 0.75776 4.58752 1.18784 2.00704 2.08896 19.33312 15.42144 44.25728 33.19808 36.90496 26.3168 71.86432 39.64928 103.89504 39.64928 31.72352 0 66.39616-13.08672 103.07584-38.87104 24.7808-17.42848 42.02496-32.99328 44.01152-35.04128 0.63488-0.43008 2.51904-1.16736 4.54656-1.16736 0.18432 0 0.34816 0 0.49152 0.02048l118.9888 66.10944c-2.88768 6.71744-16.2816 37.76512-16.2816 72.15104 0 102.66624 75.12064 186.81856 176.49664 192.08192 1.45408 8.0896 9.37984 53.39136 9.37984 87.38816C955.37152 546.42688 947.44576 591.74912 945.99168 599.79776zM509.89056 341.03296c-94.12608 0-170.72128 76.5952-170.72128 170.72128s76.5952 170.72128 170.72128 170.72128 170.72128-76.5952 170.72128-170.72128S604.01664 341.03296 509.89056 341.03296zM509.87008 644.11648c-72.94976 0-132.3008-59.35104-132.3008-132.3008s59.35104-132.3008 132.3008-132.3008 132.3008 59.35104 132.3008 132.3008S582.84032 644.11648 509.87008 644.11648z" /></svg>