<?xml version="1.0" standalone="no"?><!DOCTYPE svg PUBLIC "-//W3C//DTD SVG 1.1//EN" "http://www.w3.org/Graphics/SVG/1.1/DTD/svg11.dtd"><svg t="1513663550686" class="icon" style="" viewBox="0 0 1024 1024" version="1.1" xmlns="http://www.w3.org/2000/svg" p-id="8123" xmlns:xlink="http://www.w3.org/1999/xlink" width="48" height="48"><defs><style type="text/css"></style></defs><path d="M597.171103 362.634221a24.334601 24.334601 0 0 1 24.3346 24.3346v385.557415a24.334601 24.334601 0 1 1-48.669201 0V386.968821a24.334601 24.334601 0 0 1 24.334601-24.3346zM426.828897 362.634221a24.334601 24.334601 0 0 1 24.334601 24.3346v385.557415a24.334601 24.334601 0 1 1-48.669201 0V386.968821a24.334601 24.334601 0 0 1 24.3346-24.3346z" fill="#8a8a8a" p-id="8124"></path><path d="M694.509506 948.952091h-365.019012c-67.090494 0-121.673004-49.910266-121.673004-111.23346V316.252471a24.334601 24.334601 0 1 1 48.669202 0v521.46616c0 34.506464 32.754373 62.564259 73.003802 62.564259h365.019012c40.24943 0 73.003802-28.057795 73.003802-62.564259V316.252471a24.334601 24.334601 0 1 1 48.669202 0v521.46616c0 61.323194-54.58251 111.23346-121.673004 111.23346z" fill="#8a8a8a" p-id="8125"></path><path d="M451.163498 121.575665h121.673004a24.334601 24.334601 0 1 1 0 48.669202h-121.673004a24.334601 24.334601 0 1 1 0-48.669202zM183.48289 194.579468h657.03422a24.334601 24.334601 0 1 1 0 48.669201h-657.03422a24.334601 24.334601 0 1 1 0-48.669201z" fill="#8a8a8a" p-id="8126"></path></svg>