<?xml version="1.0" standalone="no"?><!DOCTYPE svg PUBLIC "-//W3C//DTD SVG 1.1//EN" "http://www.w3.org/Graphics/SVG/1.1/DTD/svg11.dtd"><svg class="icon" width="32px" height="32.00px" viewBox="0 0 1024 1024" version="1.1" xmlns="http://www.w3.org/2000/svg"><path fill="#8a8a8a" d="M740.672018 535.380533C605.893794 535.380533 496.634315 644.640016 496.634315 779.418236 496.634315 914.196459 605.893794 1023.455938 740.672018 1023.455938 875.450237 1023.455938 984.709717 914.196459 984.709717 779.418236 984.709717 644.640016 875.450237 535.380533 740.672018 535.380533ZM740.672018 971.955836C634.336764 971.955836 548.13386 885.752927 548.13386 779.417678 548.13386 673.082424 634.336764 586.87952 740.672018 586.87952 847.007267 586.87952 933.210172 673.082424 933.210172 779.417678 933.210172 885.752927 847.007267 971.955836 740.672018 971.955836ZM699.34289 901.651046 600.185785 806.166429C590.392493 796.373133 590.392493 781.683193 598.961625 771.889897 608.754918 762.096605 623.444861 762.096605 633.238154 770.665737L714.032831 849.01209 868.277216 680.077764C876.846348 670.284472 892.760452 669.060308 902.553745 678.853604 912.347041 687.422736 913.571201 703.33684 903.777909 713.130132L734.843583 900.426886C725.050287 911.444342 709.136186 911.444342 699.34289 901.651046ZM396.914645 985.155792C393.857994 984.364247 309.077993 995.681873 234.372406 964.78113 123.557237 918.93927 69.734436 876.550398 69.734436 826.237045 69.734436 795.675051 88.863628 689.501883 126.613888 665.618902 152.081086 649.489902 187.000528 634.547656 230.296119 621.134301 277.270531 606.590651 323.679232 597.024358 350.957611 592.044742L350.957611 540.429457C310.037784 499.340256 281.004682 454.969701 262.216498 405.165596 243.653017 355.870752 234.59711 307.93429 234.59711 240.642803 234.59711 85.798084 322.433762 1.357963 471.733149 1.357963 549.948183 1.357963 614.521768 28.352921 658.497116 79.344905 697.944512 125.017389 716.449273 174.029945 716.449273 245.849385 716.449273 379.584353 647.460652 461.987462 644.516917 465.382863 634.443631 477.212001 616.276491 478.965594 603.936969 469.345103 591.657295 459.668155 589.788527 442.292556 599.862939 430.519879 600.203949 430.067083 614.974563 412.183361 629.519342 380.716908 642.876239 351.739134 658.835866 304.823438 658.835866 245.850514 658.835866 198.366848 647.461782 56.596737 471.733149 56.596737 410.72321 56.596737 364.93668 73.968948 335.563699 108.323807 308.28532 140.187727 292.211649 181.785054 292.211649 240.645061 292.211649 364.531451 323.508728 436.239102 400.139542 509.69922 405.573086 514.849344 408.57215 521.865979 408.57215 529.22362L408.57215 615.136175C408.57215 628.776494 398.271903 640.377538 384.236376 642.472141 383.50016 642.586186 280.043763 669.241266 212.694689 690.181639 124.124079 717.686982 127.405435 808.636741 127.405435 826.238174 127.405435 844.800523 161.362827 874.34401 256.782955 913.904322 327.640346 943.27843 411.344253 931.675129 412.080468 931.845632 427.417921 935.865461 436.530289 951.031282 432.342214 965.803022 428.833894 978.026242 417.175261 986.175428 404.49812 986.175428 402.00831 986.175428 399.5185 985.834418 396.914645 985.155792Z" /></svg>