<?xml version="1.0" standalone="no"?><!DOCTYPE svg PUBLIC "-//W3C//DTD SVG 1.1//EN" "http://www.w3.org/Graphics/SVG/1.1/DTD/svg11.dtd"><svg class="icon" width="32px" height="31.97px" viewBox="0 0 1025 1024" version="1.1" xmlns="http://www.w3.org/2000/svg"><path fill="#8a8a8a" d="M610.304 1024c-24.576 0-47.104-8.704-64.512-25.088-2.048-1.024-3.584-2.56-4.096-3.072l-80.896-80.384c-5.12-5.12-11.776-33.792 3.072-48.64 6.144-7.168 15.872-10.752 27.648-10.752 2.56 0 14.848 0.512 19.968 5.632l75.776 70.656c16.896 16.896 27.136 19.456 31.744 19.456 3.072 0 6.144-1.024 8.192-3.584 4.096-4.608 6.144-12.288 5.632-16.896v-506.88c0-5.632 0-6.656 43.008-45.056 4.608-4.096 8.192-7.68 9.216-8.192l248.832-248.32c11.776-11.776 16.384-25.088 12.288-34.816-4.096-10.24-18.432-16.384-37.888-16.384h-771.584c-27.136 0-45.056 7.68-50.688 21.504-4.096 9.216-1.024 20.48 3.584 25.088 6.144 5.632 80.384 79.872 154.112 153.088 147.968 147.456 147.968 147.456 147.968 153.088v203.264c0 28.16-13.312 45.056-35.84 45.056s-35.84-16.896-35.84-45.056v-175.104l-290.304-290.816c-9.216-9.216-28.672-38.912-28.672-68.096 0-62.976 35.328-93.696 108.544-93.696h820.224c50.688 0 93.696 41.984 95.232 93.696 0 35.328-28.672 68.096-28.672 68.608l-290.304 290.816v477.184c-1.536 51.712-43.52 93.696-95.744 93.696z" /></svg>