<?xml version="1.0" standalone="no"?><!DOCTYPE svg PUBLIC "-//W3C//DTD SVG 1.1//EN" "http://www.w3.org/Graphics/SVG/1.1/DTD/svg11.dtd"><svg class="icon" width="32px" height="32.00px" viewBox="0 0 1024 1024" version="1.1" xmlns="http://www.w3.org/2000/svg"><path fill="#8a8a8a" d="M580.096 322.944c-15.36-2.176-30.848-3.392-46.528-3.392h-6.592V158.464c0-37.888-13.696-61.632-34.432-65.728-1.344-0.32-2.88 0-4.352-0.128-2.624-0.192-5.184-0.576-8-0.128-9.472 1.344-19.904 6.08-30.976 14.976l-396.16 318.72c-2.88 2.304-4.48 5.12-6.976 7.552-3.008 3.008-6.016 6.016-8.448 9.216-2.304 3.072-4.288 6.08-6.08 9.28-2.496 4.416-4.416 8.896-5.952 13.504-0.704 2.112-1.792 4.096-2.24 6.208-0.768 3.072-0.832 6.208-1.216 9.28-0.128 1.28-0.32 2.432-0.384 3.648-0.192 2.816-0.128 5.632 0 8.448 0.128 1.6 0.32 3.072 0.576 4.608 0.32 2.688 0.32 5.376 0.96 8 0.768 3.584 2.496 6.912 3.84 10.368 1.024 2.688 2.112 5.376 3.52 8a79.516 79.516 0 0 0 8.576 13.12l0.128 0.128c4.096 5.184 8.128 10.432 13.76 14.912l393.216 315.456c42.624 34.176 80.128-0.512 80.128-51.264V644.608h59.584c20.672 0 40.704 1.216 60.16 3.328 8.832 0.96 17.408 2.944 26.112 4.352 10.432 1.728 21.056 3.136 31.168 5.504 8.064 1.856 15.808 4.672 23.68 6.976 10.368 3.072 20.8 5.888 30.72 9.728 6.72 2.56 13.12 5.888 19.712 8.768 10.688 4.736 21.376 9.408 31.488 15.04 5.12 2.816 9.92 6.336 14.912 9.344 11.072 6.848 22.08 13.696 32.384 21.568 3.392 2.56 6.528 5.696 9.856 8.448 11.392 9.344 22.656 18.944 33.152 29.696 1.152 1.152 2.176 2.56 3.264 3.776 25.024 26.368 47.488 56.64 66.816 91.072 8 13.184 16.128 18.112 22.272 17.28 6.272-0.512 10.624-6.912 10.624-17.28-3.2-239.488-193.6-506.944-422.272-539.264z m5.888 258.944H463.68V815.36c-5.632-2.24-11.456-5.376-17.408-10.112l-354.944-284.8c-9.408-19.968-9.472-42.112-0.32-62.144l358.208-288.192c4.928-3.968 9.792-6.976 14.464-9.408V382.72l62.72-0.448h7.168c93.568 0 182.272 41.088 257.024 105.472 58.88 69.12 115.456 151.36 139.776 238.272-80.512-95.68-204.288-144.128-344.384-144.128z"  /></svg>