<?xml version="1.0" standalone="no"?><!DOCTYPE svg PUBLIC "-//W3C//DTD SVG 1.1//EN" "http://www.w3.org/Graphics/SVG/1.1/DTD/svg11.dtd"><svg t="1513662970777" class="icon" style="" viewBox="0 0 1024 1024" version="1.1" xmlns="http://www.w3.org/2000/svg" p-id="2635" xmlns:xlink="http://www.w3.org/1999/xlink" width="48" height="48"><defs><style type="text/css"></style></defs><path d="M525.139252 660.815327c-10.849092-9.149381-26.998911-7.649214-36.048007 3.149736L378.769626 795.409768c-52.197826 62.247716-136.14475 78.146824-187.166797 35.348066-50.972928-42.797735-49.848315-128.394229 2.499937-190.792371l110.170169-131.244136c9.099239-10.824533 7.699356-26.973328-3.149736-36.048007-10.849092-9.099239-26.948769-7.649214-36.048007 3.149736L154.87944 607.068216C84.407412 691.1144 86.107123 809.05965 158.704558 869.956601c28.823466 24.199145 64.522526 35.798321 101.495602 35.798321 56.222489 0 115.370611-26.848485 157.793816-77.446883L528.288988 696.864358C537.388227 686.014242 535.963785 669.915589 525.139252 660.815327z" p-id="2636" fill="#8a8a8a"></path><path d="M910.423245 212.384132c-19.699668-42.298362-57.348126-72.921823-106.045221-86.171592-47.097668-12.824073-99.196233-7.79964-146.493445 14.299681l-156.493194 72.947406c-12.799514 5.975085-18.348903 21.198811-12.374842 34.023908 5.975085 12.774955 21.248953 18.348903 34.023908 12.374842l156.443052-72.947406c36.348859-16.924461 75.846432-20.973684 111.445208-11.299347 33.899064 9.225105 59.84704 29.973662 73.096808 58.398038 13.299911 28.523637 12.549827 61.72276-2.049682 93.520977-15.349593 33.273824-43.897789 60.972677-80.397075 77.996398l-156.943448 73.096808c-12.849656 5.975085-18.399045 21.198811-12.399401 34.023908 4.350075 9.299807 13.549597 14.774495 23.199375 14.774495 3.650133 0 7.299243-0.774643 10.799974-2.399653l156.943448-73.096808c47.497781-22.12388 84.896552-58.697867 105.295138-102.995769C929.47209 303.255769 930.172031 254.757195 910.423245 212.384132z" p-id="2637" fill="#8a8a8a"></path><path d="M407.14693 315.088258c4.503571 13.029758 9.575076 12.626575 11.181667-1.321088l16.435321-142.664234c1.584078-13.748119-8.372691-23.920806-22.289656-22.276353l-35.132148 4.15053c-14.017248 1.656733-21.49557 13.69286-16.927531 26.909883L407.14693 315.088258z" p-id="2638" fill="#8a8a8a"></path><path d="M186.31029 261.435291l137.943722 49.757241c13.293771 4.795213 16.504906 0.626263 6.743588-9.466606l-95.708805-98.954733c-9.869788-10.204409-25.024953-9.287527-34.092469 1.798972l-22.887266 27.985378C169.176051 243.719814 172.824137 256.570493 186.31029 261.435291z" p-id="2639" fill="#8a8a8a"></path><path d="M187.372481 432.238398l139.086755-34.177404c13.404288-3.294023 13.198603-7.912204-0.890276-10.210549l-138.137127-22.530133c-14.244422-2.322905-25.38925 7.145747-25.238824 21.093411l0.286526 26.619264C162.628938 426.907996 173.774789 435.580516 187.372481 432.238398z" p-id="2640" fill="#8a8a8a"></path><path d="M412.493705 573.368696c4.89959 4.400217 11.04966 6.599302 17.174148 6.599302 6.974855 0 13.924127-2.849908 18.974144-8.399297l187.592492-207.266577c9.449209-10.474562 8.650007-26.673499-1.799996-36.148291-10.399861-9.449209-26.64894-8.674567-36.198433 1.799996L410.69371 537.195845C401.194358 547.670407 402.019143 563.869345 412.493705 573.368696z" p-id="2641" fill="#8a8a8a"></path></svg>